<svg preserveAspectRatio="none" width="100%" height="100%" overflow="visible" style="display: block;" viewBox="0 0 56 56" fill="none" xmlns="http://www.w3.org/2000/svg">
<g id="pixel:arrow-up-solid">
<path id="Vector" d="M25.6667 2.33331H30.3333V4.66665H32.6667V6.99998H35V9.33331H37.3333V11.6666H39.6667V14H42V16.3333H44.3333V18.6666H46.6667V21H49V23.3333H51.3333V25.6666H53.6667V28H51.3333V30.3333H49V32.6666H46.6667V30.3333H44.3333V28H42V25.6666H39.6667V23.3333H37.3333V21H35V18.6666H32.6667V53.6666H23.3333V18.6666H21V21H18.6666V23.3333H16.3333V25.6666H14V28H11.6666V30.3333H9.33331V32.6666H6.99998V30.3333H4.66665V28H2.33331V25.6666H4.66665V23.3333H6.99998V21H9.33331V18.6666H11.6666V16.3333H14V14H16.3333V11.6666H18.6666V9.33331H21V6.99998H23.3333V4.66665H25.6667V2.33331Z" fill="var(--fill-0, white)"/>
</g>
</svg>
