<svg preserveAspectRatio="none" width="100%" height="100%" overflow="visible" style="display: block;" viewBox="0 0 163.289 163.289" fill="none" xmlns="http://www.w3.org/2000/svg">
<path id="Vector" d="M74.2221 0H89.0665V7.42221H96.4887V14.8444H103.911V22.2666H111.333V29.6888H118.755V37.1111H126.178V44.5333H133.6V51.9555H141.022V59.3777H148.444V66.7999H155.866V74.2221H163.289V81.6443H155.866V89.0665H148.444V96.4887H141.022V89.0665H133.6V81.6443H126.178V74.2221H118.755V66.7999H111.333V59.3777H103.911V51.9555H96.4887V163.289H66.7999V51.9555H59.3777V59.3777H51.9555V66.7999H44.5333V74.2221H37.1111V81.6443H29.6888V89.0665H22.2666V96.4887H14.8444V89.0665H7.42221V81.6443H0V74.2221H7.42221V66.7999H14.8444V59.3777H22.2666V51.9555H29.6888V44.5333H37.1111V37.1111H44.5333V29.6888H51.9555V22.2666H59.3777V14.8444H66.7999V7.42221H74.2221V0Z" fill="var(--fill-0, #FF40C2)"/>
</svg>
