<svg preserveAspectRatio="none" width="100%" height="100%" overflow="visible" style="display: block;" viewBox="0 0 60 61" fill="none" xmlns="http://www.w3.org/2000/svg">
<g id="streamline-pixel:interface-essential-loading-circle-1">
<path id="Vector" d="M47.1469 27.5829V36.3135H55.7157V27.5829H47.1469ZM52.8657 33.397H49.9969V30.4995H52.8751L52.8657 33.397ZM49.9969 45.0251H41.4376V53.7367H50.0063L49.9969 45.0251ZM47.1469 50.8201H44.2969V47.9226H47.1469V50.8201ZM52.8751 21.7879V7.26228H38.5876V21.7879H52.8751ZM41.4376 10.1598H50.0063V18.8713H41.4376V10.1598ZM35.7094 1.44822H21.4407V15.9738H35.7094V1.44822ZM32.8594 13.0573H24.2907V4.34572H32.8594V13.0573ZM24.2907 50.8201H32.8594V59.5507H24.2907V50.8201ZM7.15319 45.0251H15.7219V53.7367H7.15319V45.0251ZM10.0032 13.0573H12.8532V15.9738H10.0032V13.0573ZM4.28444 30.4995H7.15319V33.397H4.28444V30.4995Z" fill="var(--fill-0, white)"/>
</g>
</svg>
