<svg width="100" height="100" viewBox="0 0 100 100" fill="none"
    xmlns="http://www.w3.org/2000/svg">
    <path d="M45.4545 0H54.5455V4.54545H59.0909V9.09091H63.6364V13.6364H68.1818V18.1818H72.7273V22.7273H77.2727V27.2727H81.8182V31.8182H86.3636V36.3636H90.9091V40.9091H95.4545V45.4545H100V50H95.4545V54.5454H90.9091V59.0909H86.3636V54.5454H81.8182V50H77.2727V45.4545H72.7273V40.9091H68.1818V36.3636H63.6364V31.8182H59.0909V100H40.9091V31.8182H36.3636V36.3636H31.8182V40.9091H27.2727V45.4545H22.7273V50H18.1818V54.5454H13.6364V59.0909H9.09091V54.5454H4.54545V50H0V45.4545H4.54545V40.9091H9.09091V36.3636H13.6364V31.8182H18.1818V27.2727H22.7273V22.7273H27.2727V18.1818H31.8182V13.6364H36.3636V9.09091H40.9091V4.54545H45.4545V0Z" fill="#FF40C2"/>
</svg>
