<svg width="144" height="81" viewBox="0 0 143.104 80.9586" fill="none"
    xmlns="http://www.w3.org/2000/svg">
    <path d="M87.4429 3.53881e-06L58.3459 50.7708L51.3243 46.7168L78.2962 3.53881e-06H87.4429Z" fill="#EB0D7D"/>
    <path d="M40.4793 80.9586V72.8507C22.6012 72.8507 8.108 58.3574 8.10796 40.4793C8.10796 22.6012 22.6012 8.10797 40.4793 8.10797L58.9222 8.22619L63.6033 0.118228L40.4793 3.53881e-06L39.9561 0.00317071C17.8411 0.283265 0 18.2979 0 40.4793L0.00316717 41.0025C0.281136 62.9433 18.0153 80.6773 39.9561 80.9552L40.4793 80.9586Z" fill="#EB0D7D"/>
    <path d="M40.4793 72.8507V80.9586L45.2549 72.8507H40.4793Z" fill="#EB0D7D"/>
    <path d="M52.8689 40.5709C52.8688 33.5048 47.1405 27.7767 40.0745 27.7767C33.0085 27.7768 27.2804 33.5049 27.2803 40.5709C27.2803 47.6369 33.0084 53.3652 40.0745 53.3653V61.4732L39.8043 61.4713C28.3849 61.3266 19.1724 52.0246 19.1724 40.5709C19.1724 29.027 28.5306 19.6688 40.0745 19.6688C51.6184 19.6688 60.9768 29.0269 60.9768 40.5709L60.9749 40.841C60.8304 52.2605 51.5283 61.4732 40.0745 61.4732V53.3653C47.1405 53.3653 52.8689 47.6369 52.8689 40.5709Z" fill="#EB0D7D"/>
    <path d="M55.6612 80.9586L84.7583 30.1879L91.7799 34.2419L64.8079 80.9586H55.6612Z" fill="#EB0D7D"/>
    <path d="M102.625 0V8.10796C120.503 8.10796 134.996 22.6012 134.996 40.4793C134.996 58.3575 120.503 72.8507 102.625 72.8507L84.182 72.7325L79.5008 80.8404L102.625 80.9586L103.148 80.9555C125.263 80.6754 143.104 62.6608 143.104 40.4793L143.101 39.9561C142.823 18.0153 125.089 0.281386 103.148 0.00348394L102.625 0Z" fill="#EB0D7D"/>
    <path d="M102.625 8.10796V0L97.8493 8.10796L102.625 8.10796Z" fill="#EB0D7D"/>
    <path d="M90.2353 40.3878C90.2354 47.4538 95.9637 53.1819 103.03 53.1819C110.096 53.1818 115.824 47.4538 115.824 40.3878C115.824 33.3218 110.096 27.5934 103.03 27.5934V19.4854L103.3 19.4873C114.719 19.632 123.932 28.9341 123.932 40.3878C123.932 51.9317 114.574 61.2898 103.03 61.2899C91.4858 61.2899 82.1274 51.9317 82.1273 40.3878L82.1292 40.1176C82.2738 28.6981 91.5759 19.4854 103.03 19.4854V27.5934C95.9637 27.5934 90.2353 33.3217 90.2353 40.3878Z" fill="#EB0D7D"/>
</svg>
