<svg preserveAspectRatio="none" width="100%" height="100%" overflow="visible" style="display: block;" viewBox="0 0 60.4127 34.1774" fill="none" xmlns="http://www.w3.org/2000/svg">
<g id="Vector">
<path d="M36.9148 1.49394e-06L24.6312 21.4333L21.667 19.7219L33.0535 1.49394e-06H36.9148Z" fill="var(--fill-0, #EB0D7D)"/>
<path d="M17.0887 34.1774V30.7546C9.54129 30.7546 3.42287 24.6361 3.42285 17.0887C3.42285 9.54129 9.54128 3.42285 17.0887 3.42285L24.8745 3.47276L26.8507 0.0499111L17.0887 1.49394e-06L16.8678 0.00133854C7.5318 0.119583 0 7.72462 0 17.0887L0.00133705 17.3096C0.118684 26.5721 7.60533 34.0586 16.8678 34.176L17.0887 34.1774Z" fill="var(--fill-0, #EB0D7D)"/>
<path d="M17.0887 30.7546V34.1774L19.1048 30.7546H17.0887Z" fill="var(--fill-0, #EB0D7D)"/>
<path d="M22.3191 17.1274C22.3191 14.1444 19.9008 11.7262 16.9178 11.7262C13.9348 11.7262 11.5167 14.1444 11.5166 17.1274C11.5166 20.1103 13.9348 22.5286 16.9178 22.5286V25.9515L16.8037 25.9507C11.9829 25.8896 8.0938 21.9627 8.0938 17.1274C8.09382 12.254 12.0444 8.30338 16.9178 8.30336C21.7912 8.30336 25.7419 12.254 25.7419 17.1274L25.7411 17.2414C25.6801 22.0623 21.7531 25.9515 16.9178 25.9515V22.5286C19.9008 22.5286 22.3191 20.1104 22.3191 17.1274Z" fill="var(--fill-0, #EB0D7D)"/>
<path d="M23.4979 34.1774L35.7815 12.7441L38.7457 14.4555L27.3593 34.1774H23.4979Z" fill="var(--fill-0, #EB0D7D)"/>
<path d="M43.324 0V3.42285C50.8714 3.42285 56.9899 9.5413 56.9899 17.0887C56.9899 24.6361 50.8714 30.7546 43.324 30.7546L35.5382 30.7047L33.562 34.1275L43.324 34.1774L43.5449 34.1761C52.8809 34.0578 60.4127 26.4528 60.4127 17.0887L60.4114 16.8678C60.294 7.60533 52.8074 0.11879 43.5449 0.00147078L43.324 0Z" fill="var(--fill-0, #EB0D7D)"/>
<path d="M43.324 3.42285V0L41.308 3.42285L43.324 3.42285Z" fill="var(--fill-0, #EB0D7D)"/>
<path d="M38.0937 17.0501C38.0937 20.0331 40.512 22.4512 43.4949 22.4512C46.4779 22.4512 48.8961 20.033 48.8961 17.0501C48.8961 14.0671 46.4779 11.6488 43.4949 11.6488V8.22594L43.609 8.22674C48.4298 8.28783 52.3189 12.2148 52.3189 17.0501C52.3189 21.9234 48.3683 25.874 43.4949 25.8741C38.6216 25.8741 34.6708 21.9234 34.6708 17.0501L34.6716 16.936C34.7326 12.1152 38.6596 8.22594 43.4949 8.22594V11.6488C40.5119 11.6488 38.0937 14.0671 38.0937 17.0501Z" fill="var(--fill-0, #EB0D7D)"/>
</g>
</svg>
