<svg width="339" height="339" viewBox="0 0 339 339" fill="none" xmlns="http://www.w3.org/2000/svg">
<path d="M0 135.434H33.8585V169.292H0V135.434ZM0 203.151H33.8585V169.292H0V203.151ZM338.585 135.434H304.726V169.292H338.585V135.434ZM338.585 203.151H304.726V169.292H338.585V203.151ZM33.8585 101.575H67.7169V135.434H33.8585V101.575ZM33.8585 237.009H67.7169V203.151H33.8585V237.009ZM304.726 101.575H270.868V135.434H304.726V101.575ZM304.726 237.009H270.868V203.151H304.726V237.009ZM67.7169 67.7169H101.575V101.575H67.7169V67.7169ZM67.7169 270.868H101.575V237.009H67.7169V270.868ZM270.868 67.7169H237.009V101.575H270.868V67.7169ZM270.868 270.868H237.009V237.009H270.868V270.868ZM101.575 33.8585H135.434V67.7169H101.575V33.8585ZM101.575 304.726H135.434V270.868H101.575V304.726ZM237.009 33.8585H203.151V67.7169H237.009V33.8585ZM237.009 304.726H203.151V270.868H237.009V304.726ZM135.434 0H169.292V33.8585H135.434V0ZM135.434 338.585H169.292V304.726H135.434V338.585ZM203.151 0H169.292V33.8585H203.151V0ZM203.151 338.585H169.292V304.726H203.151V338.585ZM152.363 253.939H186.222V220.08H152.363V253.939ZM152.363 186.222H186.222V84.6462H152.363V186.222Z" fill="#FF0004"/>
</svg>
