<svg width="1920" height="1080" viewBox="0 0 1920 1080" fill="none" xmlns="http://www.w3.org/2000/svg">
<g clip-path="url(#clip0_66_240)">
<rect width="1920" height="1080" fill="#0A0A0A"/>
<rect x="1920" y="151.5" width="31.4995" height="31.4995" transform="rotate(-180 1920 151.5)" fill="#FF40C2"/>
<rect y="833.589" width="29.4822" height="29.4822" transform="rotate(-90 0 833.589)" fill="#FF40C2"/>
<rect x="1920" y="308.997" width="31.4995" height="31.4995" transform="rotate(90 1920 308.997)" fill="#FF40C2"/>
<rect x="1920" y="560.993" width="31.4995" height="31.4995" transform="rotate(90 1920 560.993)" fill="#FF40C2"/>
<rect x="29.4824" y="951.518" width="29.4822" height="29.4822" fill="#FF40C2"/>
<rect x="1888.5" y="182.999" width="31.4995" height="31.4995" transform="rotate(-180 1888.5 182.999)" fill="#FF40C2"/>
<rect x="1857" y="151.65" width="31.4995" height="31.4995" transform="rotate(-180 1857 151.65)" fill="#FF40C2"/>
<rect x="29.4824" y="804.107" width="29.4822" height="29.4822" transform="rotate(-90 29.4824 804.107)" fill="#FF40C2"/>
<rect x="1888.5" y="340.497" width="31.4995" height="31.4995" transform="rotate(90 1888.5 340.497)" fill="#FF40C2"/>
<rect x="1888.5" y="592.492" width="31.4995" height="31.4995" transform="rotate(90 1888.5 592.492)" fill="#FF40C2"/>
<rect y="774.625" width="29.4822" height="29.4822" transform="rotate(-90 0 774.625)" fill="#FF40C2"/>
<rect x="1920" y="371.996" width="31.4995" height="31.4995" transform="rotate(90 1920 371.996)" fill="#FF40C2"/>
<rect x="1920" y="623.992" width="31.4995" height="31.4995" transform="rotate(90 1920 623.992)" fill="#FF40C2"/>
<rect x="29.4824" y="745.143" width="29.4822" height="29.4822" transform="rotate(-90 29.4824 745.143)" fill="#FF40C2"/>
<rect x="1888.5" y="403.495" width="31.4995" height="31.4995" transform="rotate(90 1888.5 403.495)" fill="#FF40C2"/>
<rect y="745.143" width="29.4822" height="29.4822" transform="rotate(-90 0 745.143)" fill="#FF40C2"/>
<rect x="1920" y="403.495" width="31.4995" height="31.4995" transform="rotate(90 1920 403.495)" fill="#FF40C2"/>
<rect x="29.4824" y="951.518" width="29.4822" height="29.4822" transform="rotate(-90 29.4824 951.518)" fill="#FF40C2"/>
<rect x="1888.5" y="182.999" width="31.4995" height="31.4995" transform="rotate(90 1888.5 182.999)" fill="#FF40C2"/>
<rect x="29.4824" y="715.66" width="29.4822" height="29.4822" transform="rotate(-90 29.4824 715.66)" fill="#FF40C2"/>
<rect x="1888.5" y="434.995" width="31.4995" height="31.4995" transform="rotate(90 1888.5 434.995)" fill="#FF40C2"/>
<rect y="922.036" width="29.4822" height="29.4822" transform="rotate(-90 0 922.036)" fill="#FF40C2"/>
<rect x="1920" y="214.499" width="31.4995" height="31.4995" transform="rotate(90 1920 214.499)" fill="#FF40C2"/>
<rect x="29.4824" y="686.178" width="29.4822" height="29.4822" transform="rotate(-90 29.4824 686.178)" fill="#FF40C2"/>
<rect x="1888.5" y="466.494" width="31.4995" height="31.4995" transform="rotate(90 1888.5 466.494)" fill="#FF40C2"/>
<rect y="686.178" width="29.4822" height="29.4822" transform="rotate(-90 0 686.178)" fill="#FF40C2"/>
<rect x="1920" y="466.494" width="31.4995" height="31.4995" transform="rotate(90 1920 466.494)" fill="#FF40C2"/>
<rect y="892.553" width="29.4822" height="29.4822" transform="rotate(-90 0 892.553)" fill="#FF40C2"/>
<rect x="1920" y="245.998" width="31.4995" height="31.4995" transform="rotate(90 1920 245.998)" fill="#FF40C2"/>
<rect x="1920" y="497.994" width="31.4995" height="31.4995" transform="rotate(90 1920 497.994)" fill="#FF40C2"/>
<rect width="1014" height="120" fill="#0044FF"/>
<rect x="994" width="20" height="20" fill="white"/>
<rect x="994" y="20" width="20" height="20" fill="white"/>
<rect x="974" y="20" width="20" height="20" fill="white"/>
<rect x="974" y="60" width="20" height="20" fill="white"/>
<rect x="994" y="60" width="20" height="20" fill="white"/>
<rect x="994" y="100" width="20" height="20" fill="white"/>
<rect x="994" y="20" width="20" height="20" fill="#0044FF"/>
<rect width="906" height="120" transform="translate(1014)" fill="white"/>
<rect x="1014" width="20" height="20" fill="#0044FF"/>
<rect x="1014" y="20" width="20" height="20" fill="white"/>
<rect x="1014" y="40" width="20" height="20" fill="#0044FF"/>
<rect x="1014" y="60" width="20" height="20" fill="#0044FF"/>
<rect x="1014" y="80" width="20" height="20" fill="white"/>
<rect x="1034" y="80" width="20" height="20" fill="#0044FF"/>
<rect x="1054" y="80" width="20" height="20" fill="#0044FF"/>
<rect x="1054" y="60" width="20" height="20" fill="#0044FF"/>
<rect x="1034" y="40" width="20" height="20" fill="#0044FF"/>
<rect x="1054" y="20" width="20" height="20" fill="#0044FF"/>
<rect x="1034" width="20" height="20" fill="#0044FF"/>
<rect x="1014" y="100" width="20" height="20" fill="#0044FF"/>
<path d="M162.48 210.911V241.702H174.688V251.177H162.48V293.993H150.82V210.911H162.48ZM139.25 218.563V227.946H111.92V264.295C123.945 264.158 133.875 263.612 144.898 261.653L146.174 271.401C133.329 273.587 122.032 273.951 107.365 273.86H100.351V218.563H139.25ZM215.5 212.459C233.902 212.459 245.563 218.563 245.654 228.675C245.563 238.696 233.902 244.8 215.5 244.709C197.189 244.8 185.255 238.696 185.255 228.675C185.255 218.563 197.189 212.459 215.5 212.459ZM215.5 221.478C203.931 221.478 197.28 223.938 197.371 228.675C197.28 233.321 203.931 235.69 215.5 235.69C226.979 235.69 233.629 233.321 233.629 228.675C233.629 223.938 226.979 221.478 215.5 221.478ZM244.288 264.659V292.9H186.44V264.659H244.288ZM197.918 273.86V283.608H232.9V273.86H197.918ZM253.307 249.537V258.829H177.694V249.537H253.307ZM323.271 240.609V250.539H355.429V259.922H279.816V250.539H311.792V240.609H323.271ZM317.532 264.477C335.569 264.477 346.319 269.67 346.41 279.144C346.319 288.618 335.569 293.811 317.532 293.811C299.312 293.811 288.471 288.618 288.471 279.144C288.471 269.67 299.312 264.477 317.532 264.477ZM317.532 273.314C305.962 273.314 300.223 275.227 300.314 279.144C300.223 283.244 305.962 285.157 317.532 285.157C328.828 285.157 334.658 283.244 334.749 279.144C334.658 275.227 328.828 273.314 317.532 273.314ZM348.597 214.464V223.573H326.095C328.145 229.267 336.617 234.824 352.149 236.236L348.05 245.346C332.426 243.798 321.95 238.013 317.532 229.95C313.113 237.967 302.774 243.798 287.196 245.346L283.096 236.236C298.537 234.824 307.055 229.358 309.15 223.573H286.74V214.464H348.597ZM426.486 214.19V243.342H403.985V251.268H436.052V260.651H360.439V251.268H392.324V243.342H369.823V214.19H426.486ZM381.21 223.209V234.232H415.099V223.209H381.21ZM426.851 266.755V293.811H415.281V275.865H368.821V266.755H426.851Z" fill="white"/>
<path d="M1230.49 742.908C1230.49 752.127 1235.41 761.267 1246.74 765.017L1241.35 772.83C1233.81 770.056 1228.61 764.822 1225.64 758.22C1222.56 765.642 1217.01 771.502 1208.77 774.47L1203.38 766.658C1215.25 762.752 1220.41 752.986 1220.41 742.83V735.095H1230.49V742.908ZM1263.77 730.798V783.298H1253.85V753.923H1240.49V745.877H1253.85V730.798H1263.77ZM1265.25 792.595V800.564H1216.42V777.752H1226.5V792.595H1265.25ZM1310.72 736.267C1310.72 744.627 1319.24 753.923 1335.56 755.955L1331.66 764.002C1319.24 762.205 1310.13 756.463 1305.49 748.767C1300.8 756.463 1291.78 762.205 1279.47 764.002L1275.49 755.955C1291.66 753.923 1300.25 744.627 1300.25 736.267V732.83H1310.72V736.267ZM1337.83 769.392V777.517H1310.17V801.814H1300.33V777.517H1272.99V769.392H1337.83ZM1407.13 767.205V775.017H1380.33V786.502H1370.49V775.017H1342.05V767.205H1407.13ZM1399.94 792.595V800.564H1349.71V780.877H1359.55V792.595H1399.94ZM1360.25 732.986V740.408H1388.77V732.986H1398.69V762.205H1350.41V732.986H1360.25ZM1360.25 754.314H1388.77V747.83H1360.25V754.314ZM1476.27 758.455V766.267H1411.27V758.455H1476.27ZM1468.53 746.736V754.548H1419.39V732.127H1467.99V740.095H1429.31V746.736H1468.53ZM1468.22 770.486V789.08H1428.61V793.455H1470.1V801.189H1418.85V781.97H1458.38V777.986H1418.77V770.486H1468.22ZM1545.25 767.048V775.017H1480.41V767.048H1545.25ZM1537.91 792.595V800.564H1488.22V779.783H1498.22V792.595H1537.91ZM1512.83 732.908C1528.38 732.83 1538.61 738.377 1538.69 747.439C1538.61 756.502 1528.38 762.127 1512.83 762.127C1497.13 762.127 1486.89 756.502 1486.89 747.439C1486.89 738.377 1497.13 732.83 1512.83 732.908ZM1512.83 740.72C1502.99 740.798 1497.21 743.142 1497.28 747.439C1497.21 751.892 1502.99 754.08 1512.83 754.08C1522.67 754.08 1528.38 751.892 1528.38 747.439C1528.38 743.142 1522.67 740.798 1512.83 740.72ZM1626.97 733.767V741.58H1607.36C1608.53 747.439 1615.88 753.377 1629.94 754.939L1626.27 762.752C1612.95 761.267 1604.04 755.72 1600.33 748.377C1596.58 755.681 1587.75 761.267 1574.47 762.752L1570.88 754.939C1584.94 753.377 1592.21 747.361 1593.38 741.58H1573.92V733.767H1626.97ZM1632.99 766.111V774.08H1606.19V786.345H1596.35V774.08H1567.91V766.111H1632.99ZM1625.8 792.595V800.564H1575.56V780.017H1585.49V792.595H1625.8ZM1696.66 730.72V801.97H1686.58V730.72H1696.66ZM1650.64 736.345V753.689H1665.96V736.345H1675.8V785.33H1640.64V736.345H1650.64ZM1650.64 777.283H1665.96V761.423H1650.64V777.283ZM1740.56 741.58V749.47H1706.19V741.58H1718.53V732.673H1728.38V741.58H1740.56ZM1723.53 752.673C1732.6 752.673 1739.08 759.705 1739.16 769.548C1739.08 779.47 1732.6 786.502 1723.53 786.502C1714.47 786.502 1707.83 779.47 1707.83 769.548C1707.83 759.705 1714.47 752.673 1723.53 752.673ZM1723.53 760.955C1719.39 760.955 1716.58 764.158 1716.58 769.548C1716.58 774.939 1719.39 778.064 1723.53 778.064C1727.52 778.064 1730.33 774.939 1730.41 769.548C1730.33 764.158 1727.52 760.955 1723.53 760.955ZM1767.75 730.72V801.814H1758.3V767.595H1752.52V798.767H1743.22V732.127H1752.52V759.627H1758.3V730.72H1767.75ZM1268.69 873.939V881.908H1241.03V905.814H1231.19V881.908H1203.85V873.939H1268.69ZM1262.91 838.47V846.283H1242.21C1243.18 853.236 1251.03 860.228 1265.64 861.986L1262.05 869.798C1249.55 868.119 1240.6 862.767 1236.35 855.423C1231.97 862.767 1223.1 868.119 1210.72 869.798L1207.05 861.986C1221.42 860.228 1229.35 853.236 1230.49 846.283H1209.71V838.47H1262.91ZM1300.64 850.814C1300.64 863.861 1306.58 876.986 1318.61 882.064L1312.75 890.033C1304.63 886.361 1299 879.291 1295.8 870.502C1292.56 880.072 1286.74 887.806 1278.06 891.752L1272.05 883.47C1284.47 878.236 1290.49 864.642 1290.56 850.814V840.189H1300.64V850.814ZM1332.52 834.72V905.97H1322.44V834.72H1332.52ZM1401.66 834.72V870.502H1391.66V834.72H1401.66ZM1380.1 837.298C1380.02 856.83 1369.16 867.455 1346.66 871.986L1343.14 863.939C1360.68 860.697 1367.99 853.9 1369.08 845.345H1346.97V837.298H1380.1ZM1401.66 873.314V892.533H1364.16V897.377H1403.61V905.111H1354.08V885.345H1391.58V881.048H1353.92V873.314H1401.66ZM1485.8 834.72V861.283H1496.27V869.642H1485.8V905.814H1475.8V834.72H1485.8ZM1441.89 840.345V857.689H1456.66V840.345H1466.58V889.33H1431.97V840.345H1441.89ZM1441.89 881.283H1456.66V865.423H1441.89V881.283ZM1555.25 834.798V850.345H1564.86V858.627H1555.25V874.095H1545.25V834.798H1555.25ZM1518.61 876.908V883.392H1545.25V876.908H1555.25V905.033H1508.69V876.908H1518.61ZM1518.61 897.064H1545.25V891.127H1518.61V897.064ZM1534 837.923V859.017H1511.35V864.955C1523.1 864.877 1531.07 864.525 1540.1 862.689L1541.19 870.736C1530.96 872.611 1521.81 873.08 1507.44 873.08H1501.42V851.439H1524.31V845.892H1501.35V837.923H1534ZM1627.75 834.72V905.814H1617.83V834.72H1627.75ZM1581.66 841.517V879.72C1591.27 879.603 1601.58 878.705 1612.05 876.673L1613.3 884.877C1600.8 887.455 1589.08 888.314 1578.06 888.236H1571.81V841.517H1581.66ZM1693.22 834.72V861.127H1703.69V869.252H1693.22V905.97H1683.22V834.72H1693.22ZM1673.3 841.283V849.33H1649.86V880.502C1660.17 880.384 1668.69 879.916 1678.14 878.236L1679.24 886.595C1668.22 888.47 1658.53 888.783 1645.96 888.705H1639.94V841.283H1673.3ZM1715.49 899.33C1711.81 899.33 1708.85 896.361 1708.92 892.767C1708.85 889.173 1711.81 886.283 1715.49 886.283C1718.92 886.283 1721.97 889.173 1721.97 892.767C1721.97 896.361 1718.92 899.33 1715.49 899.33Z" fill="white"/>
<path d="M0 655.631L1920 655.491" stroke="white" stroke-width="2.5"/>
<path d="M1046.19 655.631L1046.19 1025.79" stroke="white" stroke-width="2.5"/>
<path d="M916.269 120L916.269 655.561" stroke="white" stroke-width="2.5"/>
<path d="M1063.15 289.342L1051.77 295.883H1004.28V217.387H1051.77L1063.15 223.928V289.342ZM1050.07 282.801V230.47H1017.36V282.801H1050.07ZM1096.62 295.883H1080.92V217.387H1096.62V295.883ZM1173.59 295.883H1160.5V250.486L1146.24 295.883H1128.97L1114.71 250.486V295.883H1101.63V217.387H1117.99L1137.61 279.661L1157.23 217.387H1173.59V295.883ZM1207.13 295.883H1191.43V217.387H1207.13V295.883ZM1277.56 269.718H1271.02V289.342L1259.64 295.883H1223.53L1212.15 289.342V223.928L1223.53 217.387H1259.64L1271.02 223.928V233.74H1257.93V230.47H1225.23V282.801H1257.93V269.718H1251.39V256.635H1277.56V269.718ZM1318.98 296.014L1318.85 295.883H1338.21L1338.34 296.014H1318.98ZM1301.97 295.883L1290.59 289.342V223.928L1301.97 217.387H1338.08L1349.46 223.928V289.342L1338.21 295.883H1301.97ZM1336.38 282.801V230.47H1303.67V282.801H1336.38ZM1063.15 420.342L1051.77 426.883H1015.66L1004.28 420.342V410.53H1017.36V413.801H1050.07V394.177H1015.66L1004.28 387.635V354.928L1015.66 348.387H1051.77L1063.15 354.928V364.74H1050.07V361.47H1017.36V381.094H1051.77L1063.15 387.635V420.342ZM1135.08 387.373L1123.7 393.915H1089.29V426.883H1076.21V348.387H1123.7L1135.08 354.928V387.373ZM1122 380.832V361.47H1089.29V380.832H1122ZM1176.53 427.014L1176.4 426.883H1195.76L1195.89 427.014H1176.53ZM1159.52 426.883L1148.14 420.342V354.928L1159.52 348.387H1195.63L1207.01 354.928V420.342L1195.76 426.883H1159.52ZM1193.93 413.801V361.47H1161.22V413.801H1193.93ZM1278.94 426.883H1265.07L1253.69 393.915H1233.15V426.883H1220.07V348.387H1267.56L1278.94 354.928V387.373L1267.56 393.915L1278.94 426.883ZM1265.86 380.832V361.47H1233.15V380.832H1265.86ZM1344.33 361.47H1324.7V426.883H1311.62V361.47H1292V348.387H1344.33V361.47ZM1416.28 420.342L1404.9 426.883H1368.79L1357.41 420.342V410.53H1370.49V413.801H1403.2V394.177H1368.79L1357.41 387.635V354.928L1368.79 348.387H1404.9L1416.28 354.928V364.74H1403.2V361.47H1370.49V381.094H1404.9L1416.28 387.635V420.342ZM1063.15 551.342L1051.77 557.883H1004.28V479.387H1051.77L1063.15 485.928V551.342ZM1050.07 544.801V492.47H1017.36V544.801H1050.07ZM1089.29 525.177H1122V538.259H1089.29V525.177ZM1121.6 557.883L1105.64 503.59L1089.81 557.883H1076.21L1099.1 479.387H1112.18L1135.21 557.883H1121.6ZM1207.01 479.387L1184.11 531.718V557.883H1171.03V531.718L1148.14 479.387H1162.4L1177.57 514.056L1192.75 479.387H1207.01Z" fill="#FF40C2"/>
<g clip-path="url(#clip1_66_240)">
<rect width="1920" height="99" transform="translate(0 986.794)" fill="#111111"/>
<path d="M0 986.794H1920" stroke="white" stroke-width="2.50086"/>
</g>
</g>
<defs>
<clipPath id="clip0_66_240">
<rect width="1920" height="1080" fill="white"/>
</clipPath>
<clipPath id="clip1_66_240">
<rect width="1920" height="99" fill="white" transform="translate(0 986.794)"/>
</clipPath>
</defs>
</svg>
